<?xml version="1.0" encoding="UTF-8"?>
<!DOCTYPE svg PUBLIC "-//W3C//DTD SVG 1.1//EN" "http://www.w3.org/Graphics/SVG/1.1/DTD/svg11.dtd">
<!-- Creator: CorelDRAW 2020 (64-Bit) -->
<svg xmlns="http://www.w3.org/2000/svg" xml:space="preserve" width="20mm" height="20mm" version="1.1" style="shape-rendering:geometricPrecision; text-rendering:geometricPrecision; image-rendering:optimizeQuality; fill-rule:evenodd; clip-rule:evenodd"
viewBox="0 0 2000 2000"
 xmlns:xlink="http://www.w3.org/1999/xlink"
 xmlns:xodm="http://www.corel.com/coreldraw/odm/2003">
 <defs>
  <style type="text/css">
   <![CDATA[
    .str0 {stroke:#373435;stroke-width:150;stroke-miterlimit:22.9256}
    .fil0 {fill:#FEFEFE}
    .fil1 {fill:#373435;fill-rule:nonzero}
   ]]>
  </style>
 </defs>
 <g id="Capa_x0020_1">
  <metadata id="CorelCorpID_0Corel-Layer"/>
  <g id="_2909499562544">
   <ellipse class="fil0 str0" cx="994.26" cy="995.11" rx="902.87" ry="909.76"/>
   <polygon class="fil1" points="418.65,1412.72 418.65,432.71 602.27,432.71 602.27,1412.72 "/>
   <path id="1" class="fil1" d="M705.61 1412.72l0 -710.52 183.62 0 0 50.55c17.1,-19.89 37.36,-36.06 60.97,-48.51 23.6,-12.27 47.95,-18.4 72.85,-18.4 23.6,0 45.53,7.62 65.42,22.86 19.89,15.24 34.94,34.2 45.16,57.24 17.85,-23.97 39.59,-43.3 65.61,-58.17 26.02,-14.68 53.53,-21.93 82.52,-21.93 25.09,0 47.58,7.99 67.47,23.98 20.07,15.98 34.94,35.68 44.97,59.1 10.04,23.42 15.06,47.21 15.06,71.55l0 572.25 -183.63 0 0 -535.82c0,-6.5 -0.18,-11.89 -0.56,-15.98 -0.37,-4.28 -1.11,-9.48 -2.6,-16.17 -1.48,-6.51 -4.27,-11.53 -8.17,-14.87 -4.09,-3.53 -9.11,-5.21 -15.24,-5.21 -13.2,0 -29.74,13.39 -50.19,40.34l0 547.71 -183.43 0 0 -536.94c0,-34.01 -8.37,-51.11 -25.1,-51.11 -13.75,0 -31.03,13.57 -51.66,40.89l0 547.16 -183.07 0z"/>
   <polygon id="2" class="fil1" points="1510.36,1412.72 1510.36,1240.06 1687.29,1240.06 1687.29,1412.72 "/>
  </g>
 </g>
</svg>
